<?xml version="1.0" encoding="UTF-8" standalone="no"?>
<!-- Created with Inkscape (http://www.inkscape.org/) -->

<svg
   width="758.92456mm"
   height="145.64746mm"
   viewBox="0 0 758.92456 145.64746"
   version="1.1"
   id="svg1"
   xml:space="preserve"
   xmlns="http://www.w3.org/2000/svg"
   xmlns:svg="http://www.w3.org/2000/svg"><defs
     id="defs1" /><g
     id="layer1"
     transform="translate(310.67102,10.138448)"><g
       id="g1"><path
         style="fill:#0d7c00"
         d="m -308.36824,130.48767 c 0.005,-1.88741 0.0807,-1.94961 2.58686,-2.13813 6.64874,-0.50015 6.40492,0.55808 6.40492,-27.79947 V 78.2482 l -1.86672,-1.896571 c -2.59713,-2.638656 -4.7133,-3.664218 -8.18745,-3.967892 l -1.98437,-0.173454 -0.0832,-0.863584 -0.0832,-0.863583 8.53759,0.06983 8.53759,0.06983 3.14905,3.704167 c 2.89238,3.402255 5.42799,6.395774 9.97235,11.773265 6.80417,8.051605 16.87353,19.917535 20.09472,23.679995 l 3.85007,4.49702 0.0679,-19.139287 c 0.0842,-23.727053 0.40174,-22.472722 -5.75643,-22.736335 -1.57673,-0.06749 -2.61215,-0.230982 -2.77813,-0.438649 -0.16285,-0.203764 -1.28188,-0.390869 -2.91041,-0.486626 -8.92326,-0.524689 -15.76967,-7.282493 -15.4379,-15.238091 l 0.0813,-1.949123 -2.18165,-0.629843 c -12.04931,-3.47865 -20.03661,-14.399521 -18.59015,-25.417931 2.06153,-15.703728 19.35299,-25.3928544 36.04522,-20.197647 1.45533,0.4529507 1.58366,0.4565793 1.72558,0.048795 7.27054,-20.8900497 41.08782,-18.0784733 41.08782,3.4160503 v 1.761043 l 1.65364,0.591326 c 23.94897,8.563899 22.12139,39.329584 -2.71287,45.668656 -2.64639,0.675505 -2.85202,0.779723 -4.36473,2.212062 -5.19829,4.92211 -13.10709,7.243882 -19.52944,5.733225 -0.9913,-0.233171 -1.8545,-0.423947 -1.91823,-0.423947 -0.0637,0 -0.11587,0.759515 -0.11587,1.687811 v 1.687811 l 10.78177,0.143829 c 15.91608,0.212321 20.34615,1.122453 24.95236,5.126312 9.72091,8.449708 5.10394,21.283618 -8.93817,24.845689 -1.40217,0.35569 -2.59608,0.69339 -2.65312,0.75043 -0.2393,0.23929 16.03127,19.35217 18.45317,21.67677 3.52021,3.37879 7.94001,5.46468 11.57909,5.46468 1.35316,0 1.71052,0.48983 1.50234,2.05921 l -0.18312,1.38038 h -8.68785 -8.68785 l -0.31858,-0.59527 c -0.17522,-0.3274 -2.16062,-2.79794 -4.412,-5.4901 -2.25138,-2.69217 -7.54998,-9.03226 -11.77465,-14.08911 l -7.68123,-9.19427 h -3.53979 -3.53979 l 0.0794,11.17864 c 0.10271,14.4537 0.38978,15.01511 7.67772,15.01511 h 2.05901 v 1.5875 1.5875 h -14.81667 -14.81667 v -1.55213 -1.55213 l 2.57969,-0.12504 c 2.49683,-0.12103 4.74857,-0.76148 5.19034,-1.47627 0.091,-0.14719 -3.35555,-4.41717 -7.65892,-9.48884 -10.62489,-12.5218 -10.85684,-12.79499 -15.48783,-18.241175 -2.23858,-2.632643 -5.97515,-7.031364 -8.30349,-9.774936 -2.32833,-2.743572 -4.50057,-5.292561 -4.8272,-5.664419 l -0.59388,-0.676107 0.0753,20.372917 c 0.0943,25.50614 -0.25159,24.18561 6.45949,24.65868 l 2.1721,0.15312 0.16839,1.12293 c 0.34597,2.30705 1.38508,2.10231 -11.06459,2.18015 l -11.04278,0.0691 z m 73.08411,-31.780101 c 21.13378,-5.482247 11.13821,-28.839081 -10.31576,-24.105025 l -0.59532,0.131362 v 12.467906 12.467905 l 4.16719,-0.146868 c 3.24781,-0.114465 4.73567,-0.294334 6.74389,-0.81528 z m -22.02358,-29.244885 v -1.027807 l -1.78593,0.936316 c -0.98227,0.514975 -1.83555,0.977488 -1.89619,1.027808 -0.0606,0.05032 0.74304,0.09149 1.78594,0.09149 h 1.89618 z M -43.931299,112.00054 C -60.807664,110.22457 -70.001205,96.219359 -63.33767,82.437356 -59.026356,73.520384 -51.250865,71.019658 -27.8367,71.019658 h 10.848324 l -0.18081,-3.024321 c -1.003129,-16.778783 -23.232323,-22.35945 -39.545616,-9.927978 -0.779061,0.59368 -1.450081,1.042145 -1.491156,0.996588 -0.914892,-1.014721 -5.124528,-9.334373 -4.875126,-9.634883 1.807937,-2.178431 9.459871,-5.671287 15.852549,-7.236166 17.944376,-4.392648 33.997878,0.392381 39.6782481,11.826799 2.9648869,5.96823 2.9822658,6.156829 3.1085692,33.734857 l 0.1087548,23.746356 h -6.0957041 -6.095705 l -0.07239,-4.47209 -0.07239,-4.47209 -1.296697,1.49553 c -5.365681,6.18843 -14.914013,9.11127 -25.965443,7.94828 z m 12.842348,-10.29719 c 5.894903,-1.4138 10.682108,-5.044182 13.097456,-9.932467 l 0.925461,-1.872989 V 85.072877 80.24786 l -12.766146,0.0948 c -17.196877,0.127707 -19.119222,0.665193 -21.986044,6.147284 -5.197867,9.939643 6.603979,18.601123 20.729273,15.213403 z m 64.822918,10.29952 c -7.927032,-0.73325 -16.950578,-3.60483 -22.126229,-7.04127 l -1.418548,-0.94186 1.021113,-1.88181 c 0.561612,-1.035 1.758643,-3.279144 2.660067,-4.986993 l 1.638954,-3.10518 1.373259,0.812201 C 33.005462,104.39369 55.845002,103.07419 56.689122,92.55823 57.153684,86.770765 53.788558,84.611138 40.877717,82.410989 21.072746,79.036004 14.832242,75.46868 12.985643,66.46675 9.2073627,48.048128 27.774202,36.740406 53.313628,41.905883 c 5.895129,1.19232 13.75784,4.113826 13.75784,5.11193 0,0.222303 -4.850343,9.53682 -5.171479,9.931222 -0.03788,0.04652 -1.008972,-0.461649 -2.157982,-1.12927 -12.120031,-7.042217 -31.916864,-5.221409 -34.3533,3.159635 -2.002914,6.889783 2.392394,9.938073 18.292215,12.686249 18.951021,3.275556 25.225254,7.834612 25.691969,18.668593 0.63415,14.720728 -14.074041,23.663368 -35.638924,21.668628 z m 279.003133,0.13295 c -46.31485,-4.72502 -43.10261,-71.380665 3.43958,-71.373334 24.0211,0.0038 40.1736,19.620792 35.59703,43.23214 -3.45892,17.845224 -20.38125,30.044404 -39.03661,28.141194 z m 7.28446,-11.33696 c 13.66464,-2.059919 21.81165,-14.742959 19.17657,-29.853579 -4.3575,-24.987794 -39.85741,-25.817595 -46.09546,-1.077469 -4.4712,17.732807 9.32347,33.583518 26.91889,30.931048 z m 74.75013,11.22261 c -44.05343,-5.03217 -40.38662,-71.102419 3.955,-71.262916 9.56299,-0.03461 17.52846,3.145487 23.08489,9.216315 l 1.65365,1.806735 V 32.561047 13.340489 h 6.35 6.35 v 49.08021 49.080211 h -6.08542 -6.08542 l -0.005,-5.49011 -0.005,-5.4901 -0.97012,1.19063 c -6.25166,7.67262 -16.99562,11.59483 -28.24223,10.31014 z m 8.59214,-11.11878 c 12.26922,-1.529376 20.26609,-11.317005 20.20019,-24.723657 -0.15464,-31.458321 -44.6054,-33.082599 -47.06464,-1.719792 -1.27137,16.21397 11.11537,28.406589 26.86445,26.443449 z M -165.49729,65.203447 V 18.89674 l 5.39835,0 5.39834,0 27.74072,34.447443 27.740719,34.447444 0.06713,-34.447444 0.06713,-34.447443 h 6.613596 6.613596 v 46.302084 46.302086 l -5.490104,-0.0157 -5.490104,-0.0157 -27.648959,-34.381349 -27.64896,-34.381351 -0.13229,34.330929 -0.13229,34.330931 -6.54844,0.0708 -6.54844,0.0708 z M 78.713135,107.32376 v -4.17714 L 99.383256,77.491991 120.05338,51.837366 99.780131,51.769577 79.506885,51.701789 v -5.157733 -5.157732 h 28.442705 28.44271 v 4.086694 4.086695 L 115.7548,75.11224 c -11.35062,14.05389 -20.637498,25.60941 -20.637498,25.67893 0,0.0695 9.524998,0.12641 21.166668,0.12641 h 21.16667 v 5.29166 5.29167 H 108.08189 78.713135 Z M 191.69022,65.198824 V 18.89674 l 20.0803,0 c 26.56426,0 29.98984,0.404758 38.12804,4.505126 23.07851,11.627938 22.23539,45.904379 -1.37782,56.014048 -1.20673,0.516645 -2.23178,0.970075 -2.27787,1.007622 -0.0461,0.03755 4.80244,6.956019 10.77453,15.374383 5.97209,8.418361 10.8616,15.395411 10.86558,15.504551 0.004,0.10914 -3.1843,0.19844 -7.08508,0.19844 h -7.09233 L 243.69328,97.192748 c -8.73105,-12.47717 -10.08349,-14.28905 -10.56862,-14.158821 -0.30597,0.08214 -6.77733,0.150965 -14.38079,0.152952 l -13.82448,0.0036 v 14.155209 14.155209 h -6.61459 -6.61458 z m 43.46025,6.248129 c 21.98543,-4.231154 25.41136,-32.394194 4.78142,-39.30586 -4.7335,-1.585868 -5.53376,-1.654335 -20.92344,-1.790132 l -14.08906,-0.12432 v 20.949437 20.949436 l 13.95677,-0.116272 c 11.64929,-0.09705 14.33993,-0.190012 16.27431,-0.562289 z m 71.37837,-40.760809 c 0.21308,-0.209787 4.25696,-4.076297 8.98638,-8.592246 l 8.59896,-8.210815 8.05657,-0.0067 c 4.64797,-0.0039 7.95022,0.09172 7.8052,0.225952 -0.13824,0.127965 -5.12543,3.997497 -11.08263,8.598958 l -10.83128,8.366294 h -5.96031 c -5.19356,0 -5.91048,-0.04907 -5.57289,-0.381429 z"
         id="path2" /><path
         style="fill:#2d2d2d"
         d="m -308.36824,130.48767 c 0.005,-1.88741 0.0807,-1.94961 2.58686,-2.13813 6.64874,-0.50015 6.40492,0.55808 6.40492,-27.79947 V 78.2482 l -1.86672,-1.896571 c -2.59713,-2.638656 -4.7133,-3.664218 -8.18745,-3.967892 l -1.98437,-0.173454 -0.0832,-0.863584 -0.0832,-0.863583 8.53759,0.06983 8.53759,0.06983 3.14905,3.704167 c 2.89238,3.402255 5.42799,6.395774 9.97235,11.773265 6.80413,8.051564 16.87353,19.917535 20.09472,23.680005 l 3.85007,4.49701 0.0721,-19.049099 c 0.0801,-21.181683 0.10911,-20.791921 -1.62386,-21.848633 -0.4562,-0.278178 -0.70827,-0.506224 -0.56015,-0.506768 0.14812,-5.44e-4 0.71367,0.30096 1.25677,0.670008 l 0.98746,0.670997 V 71.34632 68.478904 l -2.3151,1.144524 c -11.3151,5.59387 -25.11102,-1.90287 -24.63217,-13.385186 l 0.0813,-1.949123 -2.18165,-0.629843 c -12.04931,-3.47865 -20.03661,-14.399521 -18.59015,-25.417931 2.06153,-15.703728 19.35299,-25.3928544 36.04522,-20.197647 1.45533,0.4529507 1.58366,0.4565793 1.72558,0.048795 7.27054,-20.8900497 41.08782,-18.0784733 41.08782,3.4160503 v 1.761043 l 1.65364,0.591326 c 23.94897,8.563899 22.12139,39.329584 -2.71287,45.668656 -2.64639,0.675505 -2.85202,0.779723 -4.36473,2.212062 -5.19829,4.92211 -13.10709,7.243882 -19.52944,5.733225 -0.9913,-0.233171 -1.85544,-0.423947 -1.92031,-0.423947 -0.0649,0 -0.0873,14.585162 -0.0497,32.411471 l 0.0682,32.411471 -0.72761,-1e-5 c -0.46743,-1e-5 -0.7276,-0.14065 -0.7276,-0.39333 0,-0.37673 -2.49607,-3.54283 -3.44455,-4.36918 -0.25054,-0.21828 -3.93316,-4.50453 -8.1836,-9.525 -8.87498,-10.48282 -9.85936,-11.6436 -15.39024,-18.148085 -2.23858,-2.632643 -5.97515,-7.031364 -8.30349,-9.774936 -2.32833,-2.743572 -4.50057,-5.292561 -4.8272,-5.664419 l -0.59388,-0.676107 0.0753,20.372917 c 0.0943,25.50614 -0.25159,24.18561 6.45949,24.65868 l 2.1721,0.15312 0.16839,1.12293 c 0.34597,2.30705 1.38508,2.10231 -11.06459,2.18015 l -11.04278,0.0691 z m 44.26251,-62.773099 c 2.87587,-0.749068 6.45613,-3.263348 7.53671,-5.292743 0.27615,-0.518634 0.30676,-0.515075 1.71857,0.199788 6.90816,3.497923 16.1634,1.807692 21.25158,-3.881051 1.46975,-1.643229 1.59154,-1.718093 3.2626,-2.005614 24.05251,-4.138438 25.64538,-35.405715 2.05647,-40.367794 -2.28416,-0.480488 -2.05832,-0.141558 -1.73025,-2.596765 1.84016,-13.77100853975 -18.25758,-22.0152109 -28.81447,-11.8198554 -3.73977,3.6116943 -4.58656,5.313764 -4.77553,9.5988714 l -0.12521,2.839127 -1.0907,-0.670868 c -11.57534,-7.119725 -28.12941,-3.35222 -33.93417,7.723002 -7.03578,13.423952 1.8834,28.057811 18.20316,29.866243 l 1.49927,0.166138 -0.57323,1.240491 c -3.83901,8.307706 5.72198,17.551841 15.5152,15.00103 z M -43.931299,112.00054 C -60.807664,110.22457 -70.001205,96.219359 -63.33767,82.437356 -59.026356,73.520384 -51.250865,71.019658 -27.8367,71.019658 h 10.848324 l -0.18081,-3.024321 c -1.003129,-16.778783 -23.232323,-22.35945 -39.545616,-9.927978 -0.779061,0.59368 -1.450081,1.042145 -1.491156,0.996588 -0.914892,-1.014721 -5.124528,-9.334373 -4.875126,-9.634883 1.807937,-2.178431 9.459871,-5.671287 15.852549,-7.236166 17.944376,-4.392648 33.997878,0.392381 39.6782481,11.826799 2.9648869,5.96823 2.9822658,6.156829 3.1085692,33.734857 l 0.1087548,23.746356 h -6.0957041 -6.095705 l -0.07239,-4.47209 -0.07239,-4.47209 -1.296697,1.49553 c -5.365681,6.18843 -14.914013,9.11127 -25.965443,7.94828 z m 12.842348,-10.29719 c 5.894903,-1.4138 10.682108,-5.044182 13.097456,-9.932467 l 0.925461,-1.872989 V 85.072877 80.24786 l -12.766146,0.0948 c -17.196877,0.127707 -19.119222,0.665193 -21.986044,6.147284 -5.197867,9.939643 6.603979,18.601123 20.729273,15.213403 z m 64.822918,10.29952 c -7.927032,-0.73325 -16.950578,-3.60483 -22.126229,-7.04127 l -1.418548,-0.94186 1.021113,-1.88181 c 0.561612,-1.035 1.758643,-3.279144 2.660067,-4.986993 l 1.638954,-3.10518 1.373259,0.812201 C 33.005462,104.39369 55.845002,103.07419 56.689122,92.55823 57.153684,86.770765 53.788558,84.611138 40.877717,82.410989 21.072746,79.036004 14.832242,75.46868 12.985643,66.46675 9.2073627,48.048128 27.774202,36.740406 53.313628,41.905883 c 5.895129,1.19232 13.75784,4.113826 13.75784,5.11193 0,0.222303 -4.850343,9.53682 -5.171479,9.931222 -0.03788,0.04652 -1.008972,-0.461649 -2.157982,-1.12927 -12.120031,-7.042217 -31.916864,-5.221409 -34.3533,3.159635 -2.002914,6.889783 2.392394,9.938073 18.292215,12.686249 18.951021,3.275556 25.225254,7.834612 25.691969,18.668593 0.63415,14.720728 -14.074041,23.663368 -35.638924,21.668628 z m 279.003133,0.13295 c -46.31485,-4.72502 -43.10261,-71.380665 3.43958,-71.373334 24.0211,0.0038 40.1736,19.620792 35.59703,43.23214 -3.45892,17.845224 -20.38125,30.044404 -39.03661,28.141194 z m 7.28446,-11.33696 c 13.66464,-2.059919 21.81165,-14.742959 19.17657,-29.853579 -4.3575,-24.987794 -39.85741,-25.817595 -46.09546,-1.077469 -4.4712,17.732807 9.32347,33.583518 26.91889,30.931048 z m 74.75013,11.22261 c -44.05343,-5.03217 -40.38662,-71.102419 3.955,-71.262916 9.56299,-0.03461 17.52846,3.145487 23.08489,9.216315 l 1.65365,1.806735 V 32.561047 13.340489 h 6.35 6.35 v 49.08021 49.080211 h -6.08542 -6.08542 l -0.005,-5.49011 -0.005,-5.4901 -0.97012,1.19063 c -6.25166,7.67262 -16.99562,11.59483 -28.24223,10.31014 z m 8.59214,-11.11878 c 12.26922,-1.529376 20.26609,-11.317005 20.20019,-24.723657 -0.15464,-31.458321 -44.6054,-33.082599 -47.06464,-1.719792 -1.27137,16.21397 11.11537,28.406589 26.86445,26.443449 z M -165.49729,65.203447 V 18.89674 l 5.39835,0 5.39834,0 27.74072,34.447443 27.740719,34.447444 0.06713,-34.447444 0.06713,-34.447443 h 6.613596 6.613596 v 46.302084 46.302086 l -5.490104,-0.0157 -5.490104,-0.0157 -27.648959,-34.381349 -27.64896,-34.381351 -0.13229,34.330929 -0.13229,34.330931 -6.54844,0.0708 -6.54844,0.0708 z M 78.713135,107.32376 v -4.17714 L 99.383256,77.491991 120.05338,51.837366 99.780131,51.769577 79.506885,51.701789 v -5.157733 -5.157732 h 28.442705 28.44271 v 4.086694 4.086695 L 115.7548,75.11224 c -11.35062,14.05389 -20.637498,25.60941 -20.637498,25.67893 0,0.0695 9.524998,0.12641 21.166668,0.12641 h 21.16667 v 5.29166 5.29167 H 108.08189 78.713135 Z M 191.69022,65.198824 V 18.89674 l 20.0803,0 c 26.56426,0 29.98984,0.404758 38.12804,4.505126 23.07851,11.627938 22.23539,45.904379 -1.37782,56.014048 -1.20673,0.516645 -2.23178,0.970075 -2.27787,1.007622 -0.0461,0.03755 4.80244,6.956019 10.77453,15.374383 5.97209,8.418361 10.8616,15.395411 10.86558,15.504551 0.004,0.10914 -3.1843,0.19844 -7.08508,0.19844 h -7.09233 L 243.69328,97.192748 c -8.73105,-12.47717 -10.08349,-14.28905 -10.56862,-14.158821 -0.30597,0.08214 -6.77733,0.150965 -14.38079,0.152952 l -13.82448,0.0036 v 14.155209 14.155209 h -6.61459 -6.61458 z m 43.46025,6.248129 c 21.98543,-4.231154 25.41136,-32.394194 4.78142,-39.30586 -4.7335,-1.585868 -5.53376,-1.654335 -20.92344,-1.790132 l -14.08906,-0.12432 v 20.949437 20.949436 l 13.95677,-0.116272 c 11.64929,-0.09705 14.33993,-0.190012 16.27431,-0.562289 z m -500.1925,0.70387 c 0.47555,-0.05889 1.18992,-0.05767 1.5875,0.0027 0.39757,0.06037 0.008,0.108551 -0.86464,0.107065 -0.87312,-0.0015 -1.19841,-0.05088 -0.72286,-0.109765 z M 306.52884,30.686144 c 0.21308,-0.209787 4.25696,-4.076297 8.98638,-8.592246 l 8.59896,-8.210815 8.05657,-0.0067 c 4.64797,-0.0039 7.95022,0.09172 7.8052,0.225952 -0.13824,0.127965 -5.12543,3.997497 -11.08263,8.598958 l -10.83128,8.366294 h -5.96031 c -5.19356,0 -5.91048,-0.04907 -5.57289,-0.381429 z"
         id="path1" /></g></g></svg>
