<?xml version="1.0" encoding="UTF-8" standalone="no"?>
<svg
   width="564.00494mm"
   height="189.91591mm"
   viewBox="0 0 564.00495 189.9159"
   version="1.1"
   id="svg1"
   xml:space="preserve"
   xmlns="http://www.w3.org/2000/svg"
   xmlns:svg="http://www.w3.org/2000/svg">
    <g id="g3">
      <path
        style="fill:#4c4c4c"
        d="m 19.55973,157.69774 c 0,-1.9922 0.116978,-2.1383 1.711986,-2.1383 3.517098,0 5.566072,-0.90903 6.560168,-2.91042 l 0.591388,-1.19063 0.0731,-23.04175 0.0731,-23.04176 -2.193786,-2.10612 c -2.583556,-2.48032 -4.799057,-3.505561 -8.072719,-3.735716 L 16.38473,99.398182 v -0.891247 -0.891247 l 8.532812,0.01913 8.532813,0.01913 15.213541,17.999185 c 8.367448,9.89955 16.701823,19.74337 18.520833,21.87514 l 3.307292,3.87596 0.07543,-18.78542 c 0.09642,-24.013062 0.342383,-23.151038 -6.605743,-23.151038 -1.662406,0 -2.068645,-0.07794 -2.068645,-0.396875 0,-0.31903 -0.406871,-0.396875 -2.074343,-0.396875 -8.917908,0 -16.410006,-7.04827 -16.135255,-15.179411 l 0.07037,-2.082536 -1.976739,-0.497554 C 30.065564,77.966682 21.650527,66.573596 22.99151,55.480794 24.949244,39.286149 42.385108,29.957628 60.20583,35.570421 c 0.47939,0.150988 0.586275,0.04606 0.729215,-0.715877 3.777061,-20.133469 39.467285,-17.342625 40.872705,3.196095 l 0.16969,2.479741 1.98773,0.700713 c 24.04751,8.477201 20.98108,40.6209 -4.368983,45.797513 -1.418694,0.289705 -1.784441,0.513338 -3.439584,2.103107 -5.234481,5.027736 -14.973909,7.414926 -20.928878,5.12979 -0.293609,-0.112668 -0.370079,0.212593 -0.370079,1.574105 v 1.716119 l 10.78177,0.143829 c 5.929974,0.07911 11.734271,0.275226 12.898437,0.435823 21.474347,2.962381 23.574917,24.159081 2.937887,29.646081 l -2.618361,0.69617 1.439111,1.7028 c 0.79151,0.93654 4.42154,5.27467 8.06674,9.6403 10.98491,13.15592 12.83587,14.55104 21.05545,15.87006 1.23986,0.19896 1.32591,0.35251 1.10993,1.98065 l -0.17664,1.33158 h -8.68785 c -8.48747,0 -8.69455,-0.0125 -8.97812,-0.54235 -0.15964,-0.2983 -2.2569,-2.8879 -4.66058,-5.75469 -2.40369,-2.86678 -7.72397,-9.23069 -11.822854,-14.14202 l -7.452519,-8.92969 H 85.24343 81.736812 V 139.936 c 0,14.90795 0.263807,15.49786 7.077604,15.82656 l 2.711979,0.13082 v 1.55282 1.55282 H 76.709729 61.893062 v -1.55213 l 0,-1.55212 2.579688,-0.12505 c 2.481063,-0.12026 4.74818,-0.76085 5.183063,-1.4645 0.142119,-0.22996 -3.246144,-4.30844 -16.857868,-20.29198 -2.346487,-2.75536 -4.980716,-5.86167 -5.853841,-6.90292 -2.56891,-3.06354 -13.41037,-15.83299 -13.809641,-16.26547 -0.507915,-0.55015 -0.377782,39.79728 0.133254,41.3148 0.731809,2.17311 2.360873,3.07301 6.075475,3.35609 l 2.309246,0.17599 0.07877,1.65364 0.07877,1.65365 H 30.684855 19.55973 Z m 73.088153,-31.86498 c 9.484527,-2.46035 13.690987,-10.06237 9.858957,-17.81737 -2.857467,-5.78275 -11.355444,-8.417466 -20.174715,-6.25497 l -0.595313,0.14597 v 12.44426 12.44426 l 4.167187,-0.14687 c 3.247813,-0.11446 4.735665,-0.29433 6.743884,-0.81528 z M 70.624312,96.689647 c 0,-0.509323 -0.03529,-0.926042 -0.07843,-0.926042 -0.04314,0 -0.846808,0.414015 -1.785938,0.920032 l -1.707508,0.920033 1.785938,0.006 1.785937,0.006 z M 290.4483,149.74667 c -10.90071,-1.96477 -16.10765,-9.49506 -16.19668,-23.42369 l -0.0304,-4.7625 6.7801,-0.0705 6.78009,-0.0705 0.13126,4.70075 c 0.26053,9.33033 5.23958,13.5329 11.61011,9.79952 7.19749,-4.21801 4.0862,-16.78639 -6.66574,-26.92689 -15.32556,-14.454039 -18.3598,-19.644167 -18.32955,-31.353123 0.0391,-15.137825 7.88886,-22.974126 22.58019,-22.541473 13.15313,0.387354 19.58478,7.518797 20.03126,22.210744 l 0.14272,4.696354 h -6.91199 -6.91199 v -3.395455 c 0,-7.614491 -1.92852,-10.362878 -7.27154,-10.362878 -4.9166,0 -7.07556,2.613932 -7.10225,8.598958 -0.0321,7.190151 2.18814,10.699371 13.06325,20.64749 11.76501,10.762173 15.32908,17.556673 15.33083,29.226463 0.002,16.56404 -10.97953,25.91973 -27.02963,23.02682 z m 172.55309,-0.24109 c -9.0251,-1.96259 -14.34043,-8.28155 -15.59989,-18.54545 -0.37389,-3.04702 -0.37389,-53.852285 0,-56.899299 1.60127,-13.049409 9.29695,-19.39378 23.00822,-18.968115 11.59804,0.360059 18.21391,5.820599 20.42524,16.85839 0.27039,1.349596 0.34455,7.927681 0.34455,30.559374 0,30.49646 0.0156,30.06811 -1.2372,33.99896 -3.29758,10.34667 -14.4298,15.71679 -26.94092,12.99614 z m 9.0807,-13.01523 c 2.06374,-0.57306 3.80035,-2.74719 4.38045,-5.48404 0.41855,-1.9747 0.41855,-55.016956 0,-56.99166 -1.55121,-7.318489 -12.00191,-8.129244 -14.17317,-1.09954 -0.73949,2.39418 -0.73949,56.79656 0,59.19074 1.15382,3.73563 5.35523,5.61673 9.79272,4.3845 z M 167.46181,102.51048 V 56.34069 l 9.19427,0.0012 9.19427,0.0012 6.98679,27.449297 c 3.84273,15.097112 7.08718,27.562406 7.20989,27.700646 0.12271,0.13825 0.22311,-12.214485 0.22311,-27.450516 V 56.34069 h 6.48229 6.4823 v 46.16979 46.16979 h -7.49912 -7.49912 l -0.55384,-2.05052 c -0.30461,-1.12779 -4.20497,-16.21896 -8.66747,-33.53594 -4.46249,-17.316976 -8.22054,-31.598522 -8.35121,-31.736767 -0.14045,-0.148599 -0.23758,13.561035 -0.23758,33.535937 v 33.78729 h -6.48229 -6.48229 z m 52.81087,45.71119 c 0.0794,-0.33276 11.50081,-70.432641 14.80854,-90.888793 l 0.16043,-0.992187 h 9.89862 c 5.44424,0 9.89862,0.05044 9.89862,0.112084 0,0.06165 3.10015,19.141411 6.88921,42.399478 3.78907,23.258068 7.16332,43.984038 7.49834,46.057708 l 0.60913,3.77031 h -7.22872 -7.22871 l -0.14154,-0.59531 c -0.11481,-0.48287 -2.51438,-16.99954 -2.51438,-17.30692 0,-0.0492 -3.73817,-0.0894 -8.30704,-0.0894 h -8.30705 l -0.32655,2.31511 c -0.17961,1.27331 -0.76274,5.29166 -1.29585,8.92969 l -0.96929,6.61458 -6.77766,0.0706 c -6.36502,0.0663 -6.77087,0.0421 -6.6661,-0.39687 z m 30.79746,-30.45131 c 0,-0.56175 -6.38782,-45.151517 -6.48175,-45.245448 -0.17495,-0.174948 -6.48283,43.914588 -6.48283,45.312348 0,0.0832 2.91703,0.15134 6.48229,0.15134 3.56526,0 6.48229,-0.0982 6.48229,-0.21824 z m 71.96667,24.40776 v -6.50215 l 13.36145,-32.88917 c 7.34881,-18.089033 13.36146,-32.962908 13.36146,-33.05305 0,-0.09014 -5.715,-0.163894 -12.7,-0.163894 h -12.7 V 62.955273 56.34069 h 20.6375 20.6375 v 6.317107 6.317108 l -13.47782,33.171955 -13.47782,33.17195 13.41168,0.13229 13.41167,0.1323 0.0708,6.54843 0.0708,6.54844 h -21.30358 -21.30358 z m 71.96666,-39.68271 V 56.31055 l 13.82448,0.09337 c 13.41434,0.0906 13.88728,0.111135 15.94115,0.692314 9.71634,2.749407 13.3783,9.181097 13.35372,23.453834 -0.019,11.045259 -2.47742,17.228193 -7.99531,20.108336 -1.86605,0.97401 -1.87519,0.89418 0.20893,1.82521 6.32023,2.82341 7.78942,7.88494 7.80094,26.87514 0.007,12.07093 0.19977,15.40862 1.02635,17.80017 l 0.52582,1.52135 h -7.38669 -7.38669 l -0.42238,-1.52135 c -0.23231,-0.83675 -0.49507,-1.69995 -0.58391,-1.91823 -0.0888,-0.21828 -0.23631,-6.88578 -0.3277,-14.81667 -0.2396,-20.7917 -0.57984,-21.40042 -11.9761,-21.42655 l -2.05053,-0.005 v 19.84375 19.84375 h -7.27604 -7.27604 z m 24.5535,-7.641042 c 3.06309,-1.696912 3.76399,-3.603592 3.95123,-10.748524 0.32648,-12.458921 -1.06885,-14.531426 -9.78546,-14.534512 l -4.16719,-0.0015 v 13.119639 13.119639 l 4.29948,-0.08891 c 4.18375,-0.08652 4.33723,-0.109825 5.70194,-0.865856 z m 81.54442,7.656112 V 56.310791 l 13.95677,0.08973 13.95677,0.08973 2.33031,0.722217 c 7.96397,2.468221 12.20535,7.892498 13.40637,17.14535 0.33716,2.597474 0.33716,53.707852 0,56.305322 -1.20102,9.25285 -5.4424,14.67713 -13.40637,17.14535 l -2.33031,0.72222 -13.95677,0.0897 -13.95677,0.0897 z m 26.08334,32.00435 c 1.04688,-0.64693 1.48193,-1.15854 2.22707,-2.61898 l 0.92604,-1.81499 0.0723,-26.85176 c 0.0953,-35.414718 0.61236,-33.659244 -9.91379,-33.659244 h -4.84284 v 32.956344 32.95635 l 5.11511,-0.0819 5.11511,-0.0819 z M 461.48868,49.792253 c 0.0583,-0.109141 2.10938,-3.502422 4.55794,-7.540625 l 4.45194,-7.342187 h 7.91466 7.91467 l -2.0721,2.22962 c -1.13966,1.226291 -4.27477,4.611939 -6.9669,7.523661 l -4.89479,5.294041 -5.50572,0.01696 c -3.02815,0.0093 -5.45801,-0.07233 -5.3997,-0.181474 z"
        id="path5" />
      <path
        style="fill:#0d7c00"
        d="m 19.824313,157.31561 v -1.41882 l 2.315104,-0.1868 c 3.004272,-0.24241 4.699584,-0.9963 5.693389,-2.5318 0.857547,-1.32498 0.987341,-4.80488 0.987341,-26.47166 v -21.32616 l -2.050521,-1.99353 c -2.823737,-2.74525 -5.91301,-4.183652 -8.985276,-4.183652 -1.034317,0 -1.135037,-0.0587 -1.135037,-0.661458 v -0.661458 l 8.400521,0.0099 8.400521,0.0099 0.79375,1.013735 c 0.436562,0.557554 2.043906,2.474475 3.571875,4.259815 1.527968,1.78535 3.194843,3.75015 3.704166,4.36624 0.509323,0.61609 4.140729,4.9017 8.069792,9.52359 3.929062,4.6219 7.62,8.97181 8.202083,9.66648 0.582083,0.69467 2.208944,2.6137 3.615247,4.2645 1.406302,1.65081 4.008992,4.72787 5.783755,6.83792 1.774763,2.11006 3.33578,3.87713 3.468927,3.92685 0.57052,0.213 0.148065,-39.16369 -0.430434,-40.1205 -0.852434,-1.40989 -2.842187,-2.220229 -5.836231,-2.376837 -1.375122,-0.07193 -2.500223,-0.216534 -2.500223,-0.321347 0,-0.104813 -1.059466,-0.270549 -2.354368,-0.368301 C 50.225262,97.869144 43.901396,91.792965 43.901396,83.547382 V 81.231919 L 42.776917,80.952524 C 19.643987,75.20478 16.022926,47.47896 37.02223,36.889904 c 6.271058,-3.162228 15.383338,-3.759658 22.09961,-1.448922 0.844322,0.290489 1.556502,0.498088 1.582623,0.461331 0.02612,-0.03676 0.253798,-0.721675 0.505948,-1.522039 6.140308,-19.49033 39.195709,-16.56102 40.306339,3.571875 0.14669,2.659126 0.25969,2.909905 1.41542,3.14105 6.273,1.254601 13.99146,8.598839 16.40943,15.613848 4.43257,12.859755 -4.95266,27.248931 -19.616644,30.075718 -1.589685,0.306445 -1.863167,0.469331 -3.707943,2.208448 -5.376241,5.068317 -11.610237,6.695366 -20.299472,5.298084 l -1.124479,-0.180824 v 1.716481 1.716481 l 10.252604,0.151904 c 10.72963,0.158971 13.803031,0.383175 17.528644,1.278711 18.08731,4.34769 17.47097,24.02453 -0.89724,28.64469 -3.122009,0.78528 -3.63276,-0.20477 5.61413,10.8825 12.07192,14.47455 15.74767,17.30844 22.46905,17.32293 l 0.85989,0.002 v 1.45521 1.45521 h -8.68149 -8.68149 l -0.56119,-0.75905 c -0.50313,-0.68052 -8.21454,-9.95321 -19.625319,-23.59872 l -4.079703,-4.87869 -3.593214,0.0517 -3.593214,0.0517 v 10.92854 c 0,14.62844 0.503593,15.55875 8.422194,15.55875 h 1.499681 v 1.32292 1.32292 H 76.709729 61.893062 v -1.32292 -1.32292 h 1.406616 c 2.607784,0 6.103664,-0.94677 6.627899,-1.795 0.11597,-0.18764 -1.794568,-2.51112 -10.24913,-12.46436 -1.037534,-1.22144 -2.719864,-3.20239 -3.738509,-4.40211 -3.321668,-3.9121 -5.960676,-7.01205 -12.690203,-14.90674 -3.643409,-4.27424 -6.922037,-8.15365 -7.285839,-8.6209 -0.363802,-0.46726 -1.227005,-1.47764 -1.918229,-2.2453 l -1.256771,-1.39573 v 19.99163 c 0,25.74438 -0.196961,24.96572 6.444192,25.4762 l 2.287058,0.1758 v 1.41617 1.41618 H 30.67223 19.824313 Z m 70.93982,-30.9841 c 9.742317,-1.70619 14.620957,-7.74054 12.816257,-15.85232 -1.60464,-7.21254 -8.902397,-10.569092 -19.726911,-9.07325 l -2.248959,0.31079 -0.06874,12.50156 -0.06874,12.50156 h 3.539808 c 1.946894,0 4.537669,-0.17475 5.757278,-0.38834 z M 70.888896,96.557355 c 0,-0.582083 -0.0743,-1.058333 -0.165111,-1.058333 -0.09081,0 -1.116629,0.47625 -2.279596,1.058333 l -2.114485,1.058333 H 68.6093 70.888896 Z M 68.639937,29.617774 c 0.568389,-0.582083 0.973904,-1.058333 0.901143,-1.058333 -0.07276,0 -0.597337,0.47625 -1.165726,1.058333 -0.568389,0.582083 -0.973904,1.058333 -0.901143,1.058333 0.07276,0 0.597337,-0.47625 1.165726,-1.058333 z m 3.975751,-3.123901 c -0.08146,-0.08146 -0.294956,-1.68e-4 -0.474431,0.180653 -0.259363,0.261307 -0.228972,0.291698 0.148112,0.148112 0.260938,-0.09936 0.407781,-0.247304 0.326319,-0.328765 z m 17.58779,0.355085 c 0,-0.06764 -0.26789,-0.252802 -0.595312,-0.411471 -0.571666,-0.277029 -0.574912,-0.272144 -0.08172,0.122983 0.539819,0.432485 0.677034,0.490953 0.677034,0.288488 z m -1.587499,-0.93535 c -0.218282,-0.141065 -0.515938,-0.256481 -0.661459,-0.256481 -0.145521,0 -0.08599,0.115416 0.132292,0.256481 0.218281,0.141064 0.515937,0.25648 0.661458,0.25648 0.145521,0 0.08599,-0.115416 -0.132291,-0.25648 z"
        id="path4" />
      <path
        style="fill:#010201"
        d="m 19.824313,157.31561 v -1.41882 l 2.315104,-0.1868 c 3.004272,-0.24241 4.699584,-0.9963 5.693389,-2.5318 0.857547,-1.32498 0.987341,-4.80488 0.987341,-26.47166 v -21.32616 l -2.050521,-1.99353 c -2.823737,-2.74525 -5.91301,-4.183652 -8.985276,-4.183652 -1.034317,0 -1.135037,-0.0587 -1.135037,-0.661458 v -0.661458 l 8.400521,0.0099 8.400521,0.0099 0.79375,1.013735 c 0.436562,0.557554 2.043906,2.474475 3.571875,4.259815 1.527968,1.78535 3.194843,3.75015 3.704166,4.36624 0.509323,0.61609 4.140729,4.9017 8.069792,9.52359 3.929062,4.6219 7.62,8.97181 8.202083,9.66648 0.582083,0.69467 2.208944,2.6137 3.615247,4.2645 1.406302,1.65081 4.008992,4.72787 5.783755,6.83792 1.774763,2.11006 3.33578,3.87713 3.468927,3.92685 0.51728,0.19313 0.155586,-39.18243 -0.367247,-39.98017 -0.325015,-0.49591 -0.357087,-0.66684 -0.107123,-0.57092 0.342054,0.13126 0.90982,-5.326195 0.587629,-5.648386 -0.06381,-0.06381 -1.216236,0.438846 -2.560938,1.117022 C 57.113692,102.27411 43.901396,95.13866 43.901396,83.547382 V 81.231919 L 42.776917,80.952524 C 19.643987,75.20478 16.022926,47.47896 37.02223,36.889904 c 6.271058,-3.162228 15.383338,-3.759658 22.09961,-1.448922 0.844322,0.290489 1.556502,0.498088 1.582623,0.461331 0.02612,-0.03676 0.253798,-0.721675 0.505948,-1.522039 6.140308,-19.49033 39.195709,-16.56102 40.306339,3.571875 0.14669,2.659126 0.25969,2.909905 1.41542,3.14105 6.273,1.254601 13.99146,8.598839 16.40943,15.613848 4.43257,12.859755 -4.95266,27.248931 -19.616644,30.075718 -1.589685,0.306445 -1.863167,0.469331 -3.707943,2.208448 -5.359984,5.052992 -11.617992,6.694903 -20.233326,5.30861 l -1.058333,-0.170296 0.07971,32.302453 c 0.09135,37.02313 0.351754,33.82506 -2.474332,30.38805 -1.386645,-1.6864 -7.026303,-8.36854 -12.652066,-14.99079 -1.037652,-1.22144 -2.720078,-3.20239 -3.738723,-4.40211 -3.321668,-3.9121 -5.960676,-7.01205 -12.690203,-14.90674 -3.643409,-4.27424 -6.922037,-8.15365 -7.285839,-8.6209 -0.363802,-0.46726 -1.227005,-1.47764 -1.918229,-2.2453 l -1.256771,-1.39573 v 19.99163 c 0,25.74438 -0.196961,24.96572 6.444192,25.4762 l 2.287058,0.1758 v 1.41617 1.41618 H 30.67223 19.824313 Z m 44.20354,-62.507795 c 3.131189,-0.929548 5.481375,-2.46289 6.871294,-4.483068 l 0.787513,-1.144611 1.410781,0.645876 c 7.142386,3.269893 15.467132,1.874009 20.719528,-3.474227 2.086746,-2.124822 2.213906,-2.207507 3.836458,-2.494604 C 122.71957,79.421932 123.2195,49.001627 98.320541,43.263984 97.678081,43.115937 97.593175,42.99194 97.711226,42.374141 98.478039,38.361164 97.6642,34.139719 95.677117,31.823053 90.314144,25.570562 83.912042,23.257067 76.666749,24.953371 c -4.466292,1.045671 -9.121307,4.545362 -11.029806,8.292328 -0.903213,1.773283 -1.362631,3.809807 -1.362631,6.040318 v 2.163865 l -2.84427,-1.427948 C 46.835343,32.69476 28.982184,40.614678 26.962963,55.312027 c -1.566848,11.404648 6.85317,21.245949 19.680232,23.002218 2.598294,0.355756 2.449919,0.217167 1.728893,1.614867 -4.180215,8.103297 5.97351,17.753048 15.655765,14.878703 z"
        id="path3" />
    </g>
</svg>
