<?xml version="1.0" encoding="UTF-8" standalone="no"?>
<svg
   version="1.1"
   id="svg1"
   width="512"
   height="557"
   viewBox="0 0 512 557"
   xmlns="http://www.w3.org/2000/svg"
   xmlns:svg="http://www.w3.org/2000/svg">
  <g id="g1">
    <g id="g3007">
      <path
         style="fill:#0e7c00"
         d="m 50.015313,551.25 c 0.0084,-3.1625 0.345922,-6.25729 0.75,-6.87732 0.423237,-0.64942 4.761944,-1.31281 10.234687,-1.56489 10.1398,-0.46704 15.360747,-2.31328 19.683388,-6.96047 4.947264,-5.31871 4.798648,-2.3562 5.096182,-101.58725 l 0.27957,-93.23992 -7.27957,-7.3806 C 68.218049,322.93145 55.210688,317 42.289901,317 H 37 v -3.5 -3.5 l 34.25,0.0637 34.25,0.0637 75,88.62351 75,88.62351 0.25628,-76.30708 c 0.17781,-52.944 -0.0793,-77.55312 -0.8396,-80.37684 C 252.48292,321.65227 243.44444,317 228.3185,317 221.59094,317 220,316.71312 220,315.5 c 0,-1.21343 -1.59334,-1.5 -8.34004,-1.5 -35.89217,0 -65.89808,-28.60164 -64.50639,-61.4875 l 0.34643,-8.18611 -8.5399,-2.2276 c -9.87325,-2.57541 -23.96543,-9.01793 -33.10406,-15.13418 C 96.969067,221.01679 81.339214,204.81477 76.413568,196.44432 66.740665,180.00658 63.522344,168.08276 63.608011,149 c 0.0572,-12.74175 0.389165,-15.56666 2.737662,-23.29659 10.288943,-33.865374 37.740997,-59.268345 74.760537,-69.180239 23.51209,-6.295304 42.46767,-5.500593 72.51685,3.040264 1.80934,0.514269 2.22189,0.07657 2.79197,-2.962195 0.3679,-1.961096 2.67048,-7.563951 5.11684,-12.450788 C 241.47685,4.3084258 295.24149,-11.576634 338.5,9.5915725 363.77554,21.959954 380.81536,47.006836 381.34865,72.574924 l 0.15135,7.256155 4,1.1797 c 21.60384,6.371512 45.83063,24.839961 57.70477,43.989221 20.38025,32.86695 17.82284,73.04429 -6.59183,103.55886 -15.60169,19.4997 -38.40473,32.96972 -65.09094,38.44997 -5.08327,1.04389 -6.54714,1.87421 -9.78066,5.54769 -8.38398,9.5247 -22.23121,17.94498 -37.74134,22.94993 -12.96073,4.18228 -39.62363,4.64509 -49.48992,0.85905 C 273.25206,295.88275 273,296.95276 273,302.77578 v 6.98977 l 42.75,0.52125 c 54.52649,0.66484 67.42286,2.27726 84.75,10.59616 23.52823,11.29609 36.53398,29.50337 36.48522,51.07714 -0.0649,28.70828 -21.8243,51.06115 -57.98522,59.56667 -4.125,0.97025 -7.8825,2.10365 -8.34999,2.51866 -1.14979,1.02069 61.9213,76.37316 72.46125,86.57111 14.38051,13.9139 26.90434,20.14319 45.63874,22.70047 l 8.25,1.12615 V 550.72158 557 h -35.46482 -35.46481 l -1.18984,-2.22323 c -0.65441,-1.22278 -22.63996,-27.88528 -48.85677,-59.25 L 328.35682,438.5 h -14.22317 -14.22316 l 0.29475,44.5 c 0.28436,42.93011 0.36969,44.662 2.4187,49.09215 3.8088,8.23494 11.25529,11.6983 27.12606,12.6163 L 340,545.30134 V 551.15067 557 h -60 -60 v -6 -6 l 5.75,-0.006 c 12.00224,-0.0121 26.8045,-4.28273 26.05136,-7.51614 C 251.57615,536.51121 118.34047,378.82608 105.25377,364.03822 L 103.00754,361.5 103.2977,444 c 0.31159,88.58932 0.23347,87.25844 5.42666,92.45164 4.27657,4.27656 9.18415,5.88557 19.77564,6.48366 l 10,0.5647 0.29569,6.75 0.29569,6.75 H 94.54569 50 Z M 335.28667,425.5661 c 26.16089,-4.24653 44.52411,-16.73836 51.80623,-35.24187 3.0481,-7.74507 3.29384,-23.10022 0.5013,-31.32423 -5.66916,-16.69567 -20.82148,-29.60963 -39.34848,-33.53576 -10.47923,-2.2207 -33.49225,-1.68165 -45.99572,1.07738 L 300,327.0381 V 377.01905 427 l 13.25,-0.004 c 7.2875,-0.002 17.204,-0.64563 22.03667,-1.43009 z M 256,305.48746 v -4.51255 l -4.19801,2.65009 c -2.30891,1.45755 -6.02141,3.47831 -8.25,4.49058 l -4.05199,1.8405 8.25,0.022 L 256,310 Z"
         id="path3008" />
      <path
         style="fill:#010100"
         d="m 50.015313,551.75 c 0.0084,-2.8875 0.345922,-5.74759 0.75,-6.35576 0.404078,-0.60817 4.784687,-1.41466 9.734687,-1.7922 10.205575,-0.7784 18.163227,-3.9126 21.362385,-8.41378 4.563246,-6.42045 4.531434,-5.75655 4.887909,-102.00762 l 0.338209,-91.31937 -7.794252,-8.01181 C 68.57359,322.82954 59.496788,318.51018 42.75,316.45919 38.292867,315.91332 38,315.69626 38,312.93873 V 310 h 33.405728 l 33.405732,0 75.34427,88.88571 75.34427,88.88572 0.29315,-77.13572 c 0.2084,-54.83525 -0.0311,-78.25689 -0.82852,-81.01379 -0.61691,-2.13295 -2.54883,-5.2531 -4.29315,-6.93366 -3.23034,-3.11228 -1.01018,-1.8945 3.07852,1.6886 l 2.25,1.97177 V 313.67431 C 256,306.70344 255.76535,301 255.47856,301 c -0.28679,0 -2.19929,1.10312 -4.25,2.45137 -11.54393,7.58966 -25.60831,11.13319 -40.55973,10.21905 -24.01397,-1.46823 -42.96822,-11.84413 -54.76612,-29.97998 -6.05307,-9.30483 -8.37632,-17.42835 -8.37842,-29.29613 l -0.002,-10.1057 -9.36013,-2.81202 C 100.59273,230.18974 73.363225,202.86087 65.376105,168.42472 62.816186,157.38774 63.060063,139.35902 65.916172,128.5 73.661944,99.05032 96.683389,73.740613 126.88854,61.467159 c 26.34814,-10.706205 61.11726,-11.107754 87.16437,-1.006661 1.19032,0.461605 1.84424,-0.534446 2.80056,-4.265821 4.72728,-18.44488 20.61211,-36.501674 40.64653,-46.2042022 14.03908,-6.7990302 24.93863,-9.33857123 40,-9.31980532 44.65899,0.0556435 81.03251,30.44596052 83.23889,69.54666452 l 0.54834,9.717334 5.10638,1.673947 c 2.80852,0.92067 9.42728,3.831045 14.70836,6.467499 75.07204,37.477906 73.66775,133.473296 -2.47936,169.485816 C 389.08217,262.07392 373.6768,267 369.10683,267 c -1.947,0 -4.28476,1.6482 -8.63813,6.09018 -14.97456,15.27935 -34.81364,24.10153 -57.40738,25.5283 -8.43417,0.53261 -14.83818,0.0119 -27.56132,-2.2412 l -3,-0.53125 0.30149,130.65328 c 0.34815,150.87033 1.66211,136.38276 -11.00362,121.32394 C 257.78404,543.05104 220.525,499.184 179,450.34094 l -75.5,-88.80555 -0.26238,79.9823 c -0.17171,52.33988 0.0959,81.71909 0.77425,85.00762 2.37944,11.53482 9.09565,16.15802 24.96683,17.18627 L 138,544.29604 V 550.64802 557 H 94 50 Z M 228.29681,298.51091 c 11.71472,-3.0513 22.8641,-10.61829 29.39852,-19.95254 l 2.05928,-2.94162 6.04413,2.71244 c 10.17727,4.56729 20.33346,6.67247 32.11122,6.65603 22.0896,-0.0308 39.00311,-7.3021 53.22088,-22.88013 6.32267,-6.92757 6.4388,-6.99785 13.37361,-8.09269 21.7465,-3.43328 39.01711,-12.22387 53.99555,-27.48328 9.04916,-9.21889 15.00219,-18.90182 19.07659,-31.02912 3.55442,-10.57959 4.44005,-27.30442 2.05591,-38.82523 -6.43646,-31.10266 -31.46977,-55.66059 -65.55075,-64.305942 -5.19267,-1.317228 -9.54451,-2.50158 -9.67075,-2.631894 -0.12624,-0.130314 0.23929,-4.08923 0.81229,-8.797592 0.8444,-6.938474 0.746,-10.011236 -0.51927,-16.215711 C 363.21491,57.42153 358.42622,45 357.10026,45 356.75563,45 354.57523,42.569267 352.25493,39.598372 343.958,28.975042 328.07033,19.397601 313.65724,16.330823 304.60699,14.405137 284.99945,15.037217 277,17.512525 262.63544,21.95742 251.46186,29.834052 239.39304,44.022921 233.4503,51.009575 230,62.48624 230,75.266778 l 0,8.846581 -4.25,-2.639381 C 197.50748,63.934499 158.6311,61.773621 128.15648,76.049406 92.096303,92.941736 73.005478,128.95724 80.586318,165.79216 c 7.352467,35.72527 39.738572,62.16717 81.739432,66.73684 4.94521,0.53804 5.71564,0.88604 5.09732,2.30242 -4.7271,10.82824 -5.73697,22.31232 -2.83481,32.23708 4.28843,14.66554 17.70185,26.82158 34.62122,31.37581 7.01903,1.88934 21.95805,1.92354 29.08733,0.0666 z"
         id="path3007" />
    </g>
  </g>
</svg>
